<?xml version="1.0" encoding="utf-8"?>
<!-- Generator: Adobe Illustrator 19.2.1, SVG Export Plug-In . SVG Version: 6.00 Build 0)  -->
<svg version="1.1" id="logo" xmlns="http://www.w3.org/2000/svg" xmlns:xlink="http://www.w3.org/1999/xlink" x="0px" y="0px"
	 viewBox="0 0 193.1 293.8" enable-background="new 0 0 193.1 293.8" xml:space="preserve">
<path id="t" fill="#231F20" d="M172,266.2c-9.7,0-15.5-7.3-15.5-19.5v-3.5c12.7-4.2,14.6-16.7,14.6-16.7c-8.6,2.4-13.7,2.1-15.8,1.7
	c-2-12.7-18-13.7-18-13.7c0,0,5.1,7.7,5.1,32.2c0,23.2,14.8,33.6,29.6,33.6c2,0,3.5-0.3,3.5-0.3c2.5-5,4-10.1,4.7-16
	C177.9,265.4,175.1,266.2,172,266.2"/>
<path id="p" fill="#231F20" d="M102.3,213c-14.7,0-29.6,10.4-29.6,33.6v35.1c5.3,3.4,9.3,6.9,14.1,12v-11.9c0-3.8-0.6-6.4-0.6-6.4
	c4.8,3.2,10.5,4.7,16.1,4.7c14.7,0,29.6-10.4,29.6-33.6C131.9,223.4,117,213,102.3,213 M102.3,266.2c-9.7,0-15.5-7.3-15.5-19.5
	c0-12.2,5.8-19.5,15.5-19.5c9.7,0,15.5,7.3,15.5,19.5C117.8,258.9,112,266.2,102.3,266.2"/>
<path id="a" fill="#231F20" d="M32.6,213c-14.7,0-29.5,10.4-29.5,33.6c0,23.2,14.8,33.6,29.5,33.6c13.7,0,18.9-9,31.2-3.1
	c0,0-1.7-3.1-1.7-9.5v-21C62.2,223.4,47.4,213,32.6,213 M17.2,246.6c0-12.2,5.8-19.5,15.5-19.5c9.7,0,15.5,7.3,15.5,19.5v9.9
	c0,3.8,0.6,6.1,0.6,6.1c-5.9,0-8.3,3.5-16.1,3.5C23,266.2,17.2,258.9,17.2,246.6"/>
<path id="fA" fill="#231F20" d="M12.9,105.8c0-26.3,8.5-41.3,8.5-41.3S0,80.5,0,117.9c0,49.3,40,82.3,74.9,82.3
	C45.4,185.6,12.9,147.5,12.9,105.8"/>
<path id="fB" fill="#231F20" d="M61.1,23.7c0,0-38.8,20.8-38.8,65.4c0,67.4,58,83.8,58,109.8c0,0,8-4.1,8-13.2
	c0-32.5-48.8-52.3-48.8-101.4C39.4,38.4,61.1,23.7,61.1,23.7"/>
<path id="dA" fill="#231F20" d="M102.2,162.8c0-3.4-2.7-6.1-6.1-6.1c-3.4,0-6.1,2.7-6.1,6.1c0,3.4,2.7,6.1,6.1,6.1
	C99.5,169,102.2,166.2,102.2,162.8"/>
<path id="dB" fill="#231F20" d="M88,152.5c4.2,0,7.6-3.4,7.6-7.6c0-4.2-3.4-7.6-7.6-7.6c-4.2,0-7.6,3.4-7.6,7.6
	C80.4,149.1,83.8,152.5,88,152.5"/>
<path id="dC" fill="#231F20" d="M74.7,118.2c-4.6,0-8.4,3.7-8.4,8.4c0,4.6,3.7,8.4,8.4,8.4c4.6,0,8.4-3.7,8.4-8.4
	C83.1,121.9,79.3,118.2,74.7,118.2"/>
<path id="dD" fill="#231F20" d="M63.3,98.4c-4.6,0-8.4,3.7-8.4,8.4c0,4.6,3.8,8.4,8.4,8.4c4.6,0,8.3-3.7,8.3-8.4
	C71.6,102.1,67.9,98.4,63.3,98.4"/>
<path id="dE" fill="#231F20" d="M53.3,81.1c3.7,0,6.7,3,6.7,6.7c0,3.7-3,6.7-6.7,6.7c-3.7,0-6.7-3-6.7-6.7
	C46.6,84.1,49.6,81.1,53.3,81.1"/>
<path id="dF" fill="#231F20" d="M45.5,68.3c0,3.2,2.6,5.7,5.7,5.7c3.2,0,5.7-2.6,5.7-5.7c0-3.2-2.6-5.7-5.7-5.7
	C48.1,62.6,45.5,65.1,45.5,68.3"/>
<path id="dG" fill="#231F20" d="M57.2,51c0-2.1-1.7-3.8-3.8-3.8c-2.1,0-3.8,1.7-3.8,3.8c0,2.1,1.7,3.8,3.8,3.8
	C55.5,54.8,57.2,53.1,57.2,51"/>
<path id="fE" fill="#231F20" d="M127.2,146.4c0-51.1-47.5-67.8-47.5-105.3C79.7,14.8,107.3,0,107.3,0S63.1,7.9,63.1,51.9
	c0,44.3,46.6,69.6,46.6,110.3c0,24.8-14.5,35.3-14.5,35.3S127.2,187.6,127.2,146.4"/>
<path id="fF" fill="#231F20" d="M145.7,134.6c0-29.2-9.1-35-9.1-49.8c0-14.6,7.6-21.5,7.6-21.5s-20.9,3-29.6,20.1
	c0,0,23.8,25.4,23.8,55.7c0,36.5-26.7,55.5-26.7,55.5S145.7,176.1,145.7,134.6"/>
<path id="fG" fill="#231F20" d="M155.9,118.9c0,0,5.8,19.8-3.8,35.3C169.2,144.7,173.6,130.7,155.9,118.9"/>
<path id="fH" fill="#231F20" d="M157.5,177.2c-18.8,0-32.1,18.1-32.1,18.1s16.9-9.8,27.9-9.8c10.3,0,14.2,3.5,14.2,3.5
	s-12.5,1-19.9,6.2c0,0,7.5,6.1,17.5,6.1c13.9,0,27.9-10.2,27.9-10.2S176.3,177.2,157.5,177.2"/>
</svg>
